<svg width="180" height="53" viewBox="0 0 180 53" fill="none" xmlns="http://www.w3.org/2000/svg">
<path d="M40.1705 26.4438C40.1318 22.2539 43.6891 20.2155 43.8518 20.1206C41.8371 17.2567 38.7145 16.8654 37.6171 16.8342C34.9945 16.5651 32.4505 18.3643 31.1145 18.3643C29.7518 18.3643 27.6945 16.8602 25.4771 16.9044C22.6238 16.9473 19.9545 18.558 18.4905 21.0592C15.4691 26.1591 17.7225 33.6536 20.6171 37.7759C22.0651 39.7948 23.7571 42.049 25.9718 41.9697C28.1385 41.8826 28.9478 40.6229 31.5625 40.6229C34.1531 40.6229 34.9131 41.9697 37.1718 41.919C39.4971 41.8826 40.9611 39.891 42.3585 37.8539C44.0318 35.5399 44.7038 33.261 44.7305 33.144C44.6758 33.1258 40.2145 31.4657 40.1705 26.4438Z" fill="#ECECEC"/>
<path d="M35.9038 14.1224C37.0691 12.7015 37.8665 10.7684 37.6451 8.8067C35.9585 8.8795 33.8491 9.9442 32.6345 11.3339C31.5598 12.5585 30.5998 14.5657 30.8478 16.4533C32.7425 16.5911 34.6878 15.5212 35.9038 14.1224Z" fill="#ECECEC"/>
<path d="M71.5269 41.6798H68.4989L66.8402 36.5981H61.0749L59.4949 41.6798H56.5469L62.2589 24.3794H65.7869L71.5269 41.6798ZM66.3402 34.4661L64.8402 29.9486C64.6815 29.4871 64.3842 28.4003 63.9455 26.6895H63.8922C63.7175 27.4253 63.4362 28.5121 63.0495 29.9486L61.5762 34.4661H66.3402Z" fill="#ECECEC"/>
<path d="M86.2159 35.2888C86.2159 37.4104 85.6279 39.0874 84.4519 40.3185C83.3985 41.4144 82.0905 41.9617 80.5292 41.9617C78.8439 41.9617 77.6332 41.3715 76.8959 40.1911H76.8425V46.7626H73.9999V33.3115C73.9999 31.9777 73.9639 30.6088 73.8945 29.2048H76.3945L76.5532 31.1821H76.6065C77.5545 29.6923 78.9932 28.9487 80.9239 28.9487C82.4332 28.9487 83.6932 29.5298 84.7012 30.6933C85.7119 31.8581 86.2159 33.3895 86.2159 35.2888ZM83.3199 35.3902C83.3199 34.176 83.0399 33.175 82.4772 32.3872C81.8625 31.5656 81.0372 31.1548 80.0025 31.1548C79.3012 31.1548 78.6639 31.3836 78.0945 31.8347C77.5239 32.2897 77.1505 32.8838 76.9759 33.6196C76.8879 33.9628 76.8439 34.2436 76.8439 34.4646V36.5446C76.8439 37.452 77.1292 38.2177 77.6999 38.843C78.2705 39.4683 79.0119 39.7803 79.9239 39.7803C80.9945 39.7803 81.8279 39.3773 82.4239 38.5739C83.0212 37.7692 83.3199 36.7084 83.3199 35.3902Z" fill="#ECECEC"/>
<path d="M100.932 35.2888C100.932 37.4104 100.344 39.0874 99.167 40.3185C98.115 41.4144 96.807 41.9617 95.2456 41.9617C93.5603 41.9617 92.3496 41.3715 91.6136 40.1911H91.5603V46.7626H88.7176V33.3115C88.7176 31.9777 88.6816 30.6088 88.6123 29.2048H91.1123L91.271 31.1821H91.3243C92.271 29.6923 93.7096 28.9487 95.6416 28.9487C97.1496 28.9487 98.4096 29.5298 99.4203 30.6933C100.427 31.8581 100.932 33.3895 100.932 35.2888ZM98.0363 35.3902C98.0363 34.176 97.755 33.175 97.1923 32.3872C96.5776 31.5656 95.755 31.1548 94.719 31.1548C94.0163 31.1548 93.3803 31.3836 92.8096 31.8347C92.239 32.2897 91.867 32.8838 91.6923 33.6196C91.6056 33.9628 91.5603 34.2436 91.5603 34.4646V36.5446C91.5603 37.452 91.8456 38.2177 92.4136 38.843C92.9843 39.467 93.7256 39.7803 94.6403 39.7803C95.711 39.7803 96.5443 39.3773 97.1403 38.5739C97.7376 37.7692 98.0363 36.7084 98.0363 35.3902Z" fill="#ECECEC"/>
<path d="M117.385 36.8283C117.385 38.2999 116.861 39.4972 115.809 40.4215C114.653 41.4316 113.044 41.936 110.976 41.936C109.066 41.936 107.536 41.5772 106.377 40.8583L107.036 38.5482C108.284 39.284 109.653 39.6532 111.145 39.6532C112.216 39.6532 113.049 39.4166 113.648 38.946C114.244 38.4754 114.541 37.8436 114.541 37.0558C114.541 36.3538 114.296 35.7623 113.804 35.2826C113.314 34.8029 112.497 34.357 111.356 33.9449C108.249 32.8152 106.697 31.1603 106.697 28.9841C106.697 27.5619 107.241 26.3958 108.33 25.4884C109.416 24.5797 110.864 24.126 112.674 24.126C114.289 24.126 115.63 24.4003 116.701 24.9476L115.99 27.207C114.99 26.6766 113.86 26.4114 112.594 26.4114C111.594 26.4114 110.813 26.6519 110.253 27.1303C109.78 27.558 109.542 28.0793 109.542 28.6968C109.542 29.3806 109.813 29.9461 110.357 30.3907C110.83 30.8015 111.69 31.2461 112.938 31.7258C114.465 32.3251 115.586 33.0258 116.308 33.8292C117.026 34.63 117.385 35.6323 117.385 36.8283Z" fill="#ECECEC"/>
<path d="M126.784 31.285H123.651V37.3417C123.651 38.8822 124.203 39.6518 125.31 39.6518C125.818 39.6518 126.239 39.6089 126.572 39.5231L126.651 41.6278C126.091 41.8319 125.354 41.9346 124.44 41.9346C123.318 41.9346 122.44 41.6005 121.807 40.9336C121.176 40.2654 120.859 39.1448 120.859 37.5705V31.2824H118.992V29.2024H120.859V26.9183L123.651 26.0967V29.2024H126.784V31.285Z" fill="#ECECEC"/>
<path d="M140.922 35.3397C140.922 37.2572 140.359 38.8315 139.236 40.0626C138.059 41.3301 136.496 41.9619 134.548 41.9619C132.671 41.9619 131.176 41.3548 130.062 40.1406C128.947 38.9264 128.39 37.3937 128.39 35.5464C128.39 33.6133 128.963 32.0299 130.114 30.7988C131.262 29.5664 132.811 28.9502 134.759 28.9502C136.636 28.9502 138.147 29.5573 139.287 30.7728C140.378 31.9519 140.922 33.4742 140.922 35.3397ZM137.972 35.4294C137.972 34.2789 137.72 33.2922 137.21 32.4693C136.614 31.4735 135.762 30.9769 134.658 30.9769C133.515 30.9769 132.647 31.4748 132.051 32.4693C131.54 33.2935 131.288 34.2958 131.288 35.4814C131.288 36.6319 131.54 37.6186 132.051 38.4402C132.666 39.436 133.524 39.9326 134.632 39.9326C135.718 39.9326 136.57 39.4256 137.184 38.4142C137.708 37.5757 137.972 36.5786 137.972 35.4294Z" fill="#ECECEC"/>
<path d="M150.162 31.6423C149.88 31.5916 149.58 31.5656 149.266 31.5656C148.266 31.5656 147.492 31.9335 146.948 32.6706C146.475 33.3206 146.238 34.1422 146.238 35.1341V41.6796H143.396L143.423 33.1334C143.423 31.6956 143.387 30.3865 143.316 29.2061H145.792L145.896 31.5929H145.975C146.275 30.7726 146.748 30.1122 147.396 29.6169C148.03 29.171 148.714 28.9487 149.451 28.9487C149.714 28.9487 149.951 28.9669 150.162 28.9994V31.6423Z" fill="#ECECEC"/>
<path d="M162.875 34.852C162.875 35.3486 162.841 35.7672 162.771 36.1091H154.243C154.276 37.3415 154.688 38.284 155.48 38.934C156.199 39.5151 157.128 39.8063 158.269 39.8063C159.532 39.8063 160.684 39.61 161.72 39.2161L162.165 41.1401C160.955 41.6549 159.525 41.911 157.876 41.911C155.892 41.911 154.335 41.3416 153.201 40.2041C152.071 39.0666 151.504 37.5391 151.504 35.6229C151.504 33.7418 152.031 32.1753 153.085 30.926C154.189 29.5922 155.681 28.9253 157.559 28.9253C159.403 28.9253 160.799 29.5922 161.747 30.926C162.497 31.9855 162.875 33.2959 162.875 34.852ZM160.164 34.1331C160.183 33.3115 159.997 32.6017 159.612 32.0024C159.12 31.2315 158.364 30.8467 157.347 30.8467C156.417 30.8467 155.661 31.2224 155.084 31.9764C154.611 32.5757 154.329 33.2946 154.243 34.1318H160.164V34.1331Z" fill="#ECECEC"/>
<path d="M65.3997 13.7359C65.3997 15.266 64.9291 16.4178 63.989 17.1913C63.1184 17.905 61.881 18.2625 60.2784 18.2625C59.4837 18.2625 58.8037 18.2287 58.2344 18.1611V9.80082C58.977 9.68382 59.777 9.62402 60.641 9.62402C62.1677 9.62402 63.3184 9.94772 64.0944 10.5951C64.9637 11.327 65.3997 12.3735 65.3997 13.7359ZM63.9264 13.7736C63.9264 12.7817 63.657 12.0212 63.1184 11.4908C62.5797 10.9617 61.793 10.6965 60.757 10.6965C60.317 10.6965 59.9424 10.7251 59.6317 10.7849V17.1406C59.8037 17.1666 60.1184 17.1783 60.5757 17.1783C61.645 17.1783 62.4704 16.8884 63.0517 16.3086C63.6331 15.7288 63.9264 14.8838 63.9264 13.7736Z" fill="#ECECEC"/>
<path d="M73.2117 15.0728C73.2117 16.0153 72.9357 16.7875 72.3837 17.3933C71.805 18.016 71.0383 18.3267 70.081 18.3267C69.1583 18.3267 68.4237 18.029 67.8757 17.431C67.329 16.8343 67.0557 16.0816 67.0557 15.1742C67.0557 14.2252 67.337 13.4465 67.9023 12.842C68.4677 12.2375 69.2277 11.9346 70.185 11.9346C71.1077 11.9346 71.849 12.2323 72.4103 12.829C72.9437 13.4088 73.2117 14.1576 73.2117 15.0728ZM71.7623 15.117C71.7623 14.5515 71.637 14.0666 71.3877 13.6623C71.0943 13.1735 70.677 12.9291 70.1343 12.9291C69.573 12.9291 69.1463 13.1735 68.853 13.6623C68.6023 14.0666 68.4783 14.5593 68.4783 15.1417C68.4783 15.7072 68.6037 16.1921 68.853 16.5964C69.1557 17.0852 69.577 17.3296 70.121 17.3296C70.6543 17.3296 71.073 17.0813 71.3743 16.5834C71.633 16.1713 71.7623 15.6825 71.7623 15.117Z" fill="#ECECEC"/>
<path d="M83.6867 12.0591L81.7201 18.1873H80.4401L79.6254 15.5262C79.4187 14.8619 79.2507 14.2015 79.1201 13.5463H79.0947C78.9734 14.2197 78.8054 14.8788 78.5894 15.5262L77.7241 18.1873H76.4294L74.5801 12.0591H76.0161L76.7267 14.9724C76.8987 15.6614 77.0401 16.3179 77.1534 16.9393H77.1787C77.2827 16.4271 77.4547 15.7745 77.6974 14.9854L78.5894 12.0604H79.7281L80.5827 14.923C80.7894 15.6211 80.9574 16.2932 81.0867 16.9406H81.1254C81.2201 16.3101 81.3627 15.638 81.5521 14.923L82.3147 12.0604H83.6867V12.0591Z" fill="#ECECEC"/>
<path d="M90.9302 18.1876H89.5329V14.6776C89.5329 13.596 89.1116 13.0552 88.2662 13.0552C87.8516 13.0552 87.5169 13.2034 87.2569 13.5011C86.9996 13.7988 86.8689 14.1498 86.8689 14.5515V18.1863H85.4716V13.8105C85.4716 13.2723 85.4542 12.6886 85.4209 12.0568H86.6489L86.7142 13.0149H86.7529C86.9156 12.7172 87.1582 12.4715 87.4769 12.2752C87.8556 12.0464 88.2796 11.9307 88.7436 11.9307C89.3302 11.9307 89.8182 12.1153 90.2062 12.4858C90.6889 12.9395 90.9302 13.6168 90.9302 14.5164V18.1876Z" fill="#ECECEC"/>
<path d="M94.7837 18.1872H93.3877V9.24707H94.7837V18.1872Z" fill="#ECECEC"/>
<path d="M103.01 15.0728C103.01 16.0153 102.734 16.7875 102.182 17.3933C101.604 18.016 100.836 18.3267 99.8798 18.3267C98.9558 18.3267 98.2212 18.029 97.6745 17.431C97.1278 16.8343 96.8545 16.0816 96.8545 15.1742C96.8545 14.2252 97.1358 13.4465 97.7012 12.842C98.2665 12.2375 99.0265 11.9346 99.9825 11.9346C100.906 11.9346 101.646 12.2323 102.209 12.829C102.742 13.4088 103.01 14.1576 103.01 15.0728ZM101.56 15.117C101.56 14.5515 101.434 14.0666 101.185 13.6623C100.893 13.1735 100.474 12.9291 99.9332 12.9291C99.3705 12.9291 98.9438 13.1735 98.6518 13.6623C98.4012 14.0666 98.2772 14.5593 98.2772 15.1417C98.2772 15.7072 98.4025 16.1921 98.6518 16.5964C98.9545 17.0852 99.3758 17.3296 99.9198 17.3296C100.453 17.3296 100.87 17.0813 101.172 16.5834C101.432 16.1713 101.56 15.6825 101.56 15.117Z" fill="#ECECEC"/>
<path d="M109.773 18.1876H108.519L108.415 17.4817H108.376C107.947 18.0446 107.335 18.3267 106.54 18.3267C105.947 18.3267 105.467 18.1408 105.105 17.7716C104.777 17.4362 104.613 17.0189 104.613 16.5236C104.613 15.7748 104.933 15.2041 105.577 14.8089C106.22 14.4137 107.124 14.22 108.288 14.2291V14.1147C108.288 13.3074 107.853 12.9044 106.983 12.9044C106.363 12.9044 105.816 13.0565 105.344 13.3581L105.06 12.4637C105.644 12.1114 106.365 11.9346 107.216 11.9346C108.859 11.9346 109.683 12.7796 109.683 14.4696V16.7264C109.683 17.3387 109.713 17.8262 109.773 18.1876ZM108.323 16.0816V15.1365C106.781 15.1105 106.011 15.5226 106.011 16.3715C106.011 16.6913 106.099 16.9305 106.279 17.0904C106.459 17.2503 106.688 17.3296 106.961 17.3296C107.268 17.3296 107.555 17.2347 107.816 17.0462C108.079 16.8564 108.24 16.6159 108.3 16.3208C108.315 16.2545 108.323 16.1739 108.323 16.0816Z" fill="#ECECEC"/>
<path d="M117.713 18.1872H116.473L116.408 17.2031H116.369C115.973 17.9519 115.298 18.3263 114.35 18.3263C113.593 18.3263 112.962 18.0364 112.462 17.4566C111.962 16.8768 111.713 16.1241 111.713 15.1998C111.713 14.2079 111.984 13.4045 112.528 12.7909C113.054 12.2189 113.7 11.9329 114.468 11.9329C115.312 11.9329 115.902 12.2098 116.238 12.7649H116.265V9.24707H117.664V16.5362C117.664 17.1329 117.68 17.6828 117.713 18.1872ZM116.265 15.6028V14.581C116.265 14.4042 116.252 14.2612 116.226 14.152C116.148 13.8244 115.978 13.5488 115.721 13.3265C115.461 13.1042 115.148 12.9924 114.786 12.9924C114.265 12.9924 113.857 13.1939 113.557 13.5982C113.26 14.0025 113.109 14.5186 113.109 15.1491C113.109 15.7549 113.252 16.2463 113.538 16.6246C113.841 17.0276 114.249 17.2291 114.76 17.2291C115.218 17.2291 115.585 17.0614 115.864 16.7247C116.133 16.414 116.265 16.0396 116.265 15.6028Z" fill="#ECECEC"/>
<path d="M129.664 15.0728C129.664 16.0153 129.388 16.7875 128.836 17.3933C128.257 18.016 127.492 18.3267 126.533 18.3267C125.612 18.3267 124.877 18.029 124.328 17.431C123.781 16.8343 123.508 16.0816 123.508 15.1742C123.508 14.2252 123.789 13.4465 124.354 12.842C124.92 12.2375 125.68 11.9346 126.638 11.9346C127.56 11.9346 128.302 12.2323 128.862 12.829C129.396 13.4088 129.664 14.1576 129.664 15.0728ZM128.216 15.117C128.216 14.5515 128.09 14.0666 127.841 13.6623C127.546 13.1735 127.13 12.9291 126.586 12.9291C126.026 12.9291 125.6 13.1735 125.305 13.6623C125.054 14.0666 124.93 14.5593 124.93 15.1417C124.93 15.7072 125.056 16.1921 125.305 16.5964C125.608 17.0852 126.029 17.3296 126.573 17.3296C127.106 17.3296 127.526 17.0813 127.828 16.5834C128.085 16.1713 128.216 15.6825 128.216 15.117Z" fill="#ECECEC"/>
<path d="M137.177 18.1876H135.781V14.6776C135.781 13.596 135.36 13.0552 134.513 13.0552C134.098 13.0552 133.764 13.2034 133.505 13.5011C133.246 13.7988 133.117 14.1498 133.117 14.5515V18.1863H131.718V13.8105C131.718 13.2723 131.702 12.6886 131.669 12.0568H132.896L132.961 13.0149H133C133.164 12.7172 133.406 12.4715 133.724 12.2752C134.104 12.0464 134.526 11.9307 134.992 11.9307C135.577 11.9307 136.065 12.1153 136.453 12.4858C136.937 12.9395 137.177 13.6168 137.177 14.5164V18.1876Z" fill="#ECECEC"/>
<path d="M146.581 13.0799H145.042V16.0569C145.042 16.8135 145.316 17.1918 145.857 17.1918C146.108 17.1918 146.316 17.171 146.48 17.1281L146.516 18.1616C146.24 18.263 145.877 18.3137 145.43 18.3137C144.878 18.3137 144.449 18.1499 144.138 17.8223C143.826 17.4947 143.672 16.9435 143.672 16.17V13.0799H142.753V12.0594H143.672V10.9362L145.041 10.5332V12.0581H146.58V13.0799H146.581Z" fill="#ECECEC"/>
<path d="M153.978 18.1872H152.58V14.7032C152.58 13.6047 152.158 13.0548 151.314 13.0548C150.666 13.0548 150.224 13.3733 149.981 14.0103C149.94 14.1442 149.916 14.308 149.916 14.5004V18.1859H148.52V9.24707H149.916V12.9404H149.942C150.382 12.2683 151.013 11.9329 151.83 11.9329C152.409 11.9329 152.888 12.1175 153.268 12.488C153.741 12.9495 153.978 13.6359 153.978 14.5433V18.1872Z" fill="#ECECEC"/>
<path d="M161.609 14.8336C161.609 15.078 161.591 15.2834 161.557 15.4511H157.367C157.385 16.0569 157.585 16.5184 157.973 16.8382C158.328 17.1242 158.785 17.2672 159.345 17.2672C159.965 17.2672 160.531 17.171 161.04 16.9773L161.259 17.9236C160.663 18.1758 159.961 18.3019 159.149 18.3019C158.176 18.3019 157.409 18.0225 156.855 17.4635C156.297 16.9045 156.021 16.1544 156.021 15.2132C156.021 14.2889 156.279 13.5193 156.797 12.9057C157.339 12.2505 158.071 11.9229 158.995 11.9229C159.899 11.9229 160.585 12.2505 161.049 12.9057C161.424 13.4257 161.609 14.0692 161.609 14.8336ZM160.276 14.4813C160.287 14.077 160.195 13.7286 160.005 13.4348C159.763 13.0565 159.393 12.8667 158.893 12.8667C158.437 12.8667 158.065 13.0513 157.781 13.4218C157.549 13.7169 157.412 14.0692 157.367 14.4813H160.276Z" fill="#ECECEC"/>
<rect x="0.5" y="1.22461" width="179" height="51" rx="6.5" stroke="#939393"/>
</svg>
