<svg width="1440" height="2009" viewBox="0 0 1440 2009" fill="none" xmlns="http://www.w3.org/2000/svg">
<g clip-path="url(#clip0_54_513)">
<path d="M1168.86 1477.96C1174.07 1476.21 1177.58 1471.32 1177.58 1465.82L1177.58 749.258C1177.58 743.757 1174.07 738.869 1168.86 737.111L649.679 562.015C641.37 559.212 632.763 565.393 632.763 574.162L632.763 914.793C632.763 920.195 636.15 925.018 641.232 926.851L1118.95 1099.2C1126.75 1102.02 1126.75 1113.06 1118.95 1115.87L641.232 1288.22C636.15 1290.06 632.763 1294.88 632.763 1300.28L632.763 1640.91C632.763 1649.68 641.37 1655.86 649.679 1653.06L1168.86 1477.96Z" fill="#ECECEC"/>
<path d="M84.4599 377.88C79.2472 379.638 75.7373 384.526 75.7373 390.027V1106.59C75.7373 1112.09 79.2472 1116.97 84.4599 1118.73L603.641 1293.83C611.95 1296.63 620.557 1290.45 620.557 1281.68V941.051C620.557 935.648 617.17 930.826 612.088 928.992L134.371 756.64C126.568 753.824 126.568 742.788 134.371 739.973L612.088 567.62C617.17 565.787 620.557 560.964 620.557 555.562V214.931C620.557 206.162 611.95 199.981 603.641 202.784L84.4599 377.88Z" fill="#ECECEC"/>
<path d="M-505.314 -174.701C-510.526 -172.943 -514.036 -168.055 -514.036 -162.554V554.005C-514.036 559.506 -510.526 564.394 -505.314 566.152L13.8676 741.248C22.1767 744.05 30.7835 737.87 30.7835 729.101V388.47C30.7835 383.068 27.3965 378.245 22.3147 376.411L-455.402 204.059C-463.206 201.243 -463.206 190.207 -455.402 187.392L22.3147 15.0393C27.3965 13.2058 30.7835 8.38324 30.7835 2.9808V-337.65C30.7835 -346.419 22.1767 -352.6 13.8676 -349.797L-505.314 -174.701Z" fill="#ECECEC"/>
<path d="M1230.55 1833.63C1225.34 1831.87 1221.83 1826.99 1221.83 1821.48L1221.83 1104.93C1221.83 1099.42 1225.34 1094.54 1230.55 1092.78L1749.73 917.682C1758.04 914.88 1766.65 921.06 1766.65 929.829L1766.65 1270.46C1766.65 1275.86 1763.26 1280.69 1758.18 1282.52L1280.46 1454.87C1272.66 1457.69 1272.66 1468.72 1280.46 1471.54L1758.18 1643.89C1763.26 1645.72 1766.65 1650.55 1766.65 1655.95L1766.65 1996.58C1766.65 2005.35 1758.04 2011.53 1749.73 2008.73L1230.55 1833.63Z" fill="#ECECEC"/>
</g>
<defs>
<clipPath id="clip0_54_513">
<rect width="1440" height="2009" fill="white"/>
</clipPath>
</defs>
</svg>
