<svg width="2282" height="2361" viewBox="0 0 2282 2361" fill="none" xmlns="http://www.w3.org/2000/svg">
<path d="M1683.86 1828.96C1689.07 1827.21 1692.58 1822.32 1692.58 1816.82L1692.58 1100.26C1692.58 1094.76 1689.07 1089.87 1683.86 1088.11L1164.68 913.015C1156.37 910.212 1147.76 916.393 1147.76 925.162L1147.76 1265.79C1147.76 1271.2 1151.15 1276.02 1156.23 1277.85L1633.95 1450.2C1641.75 1453.02 1641.75 1464.06 1633.95 1466.87L1156.23 1639.22C1151.15 1641.06 1147.76 1645.88 1147.76 1651.28L1147.76 1991.91C1147.76 2000.68 1156.37 2006.86 1164.68 2004.06L1683.86 1828.96Z" fill="#ECECEC"/>
<path d="M599.46 728.88C594.247 730.638 590.737 735.526 590.737 741.027V1457.59C590.737 1463.09 594.247 1467.97 599.46 1469.73L1118.64 1644.83C1126.95 1647.63 1135.56 1641.45 1135.56 1632.68V1292.05C1135.56 1286.65 1132.17 1281.83 1127.09 1279.99L649.371 1107.64C641.568 1104.82 641.568 1093.79 649.371 1090.97L1127.09 918.62C1132.17 916.787 1135.56 911.964 1135.56 906.562V565.931C1135.56 557.162 1126.95 550.981 1118.64 553.784L599.46 728.88Z" fill="#ECECEC"/>
<path d="M9.68649 176.299C4.47378 178.057 0.963867 182.945 0.963867 188.446V905.005C0.963867 910.506 4.47378 915.394 9.68649 917.152L528.868 1092.25C537.177 1095.05 545.784 1088.87 545.784 1080.1V739.47C545.784 734.068 542.397 729.245 537.315 727.411L59.5976 555.059C51.7943 552.243 51.7943 541.207 59.5976 538.392L537.315 366.039C542.397 364.206 545.784 359.383 545.784 353.981V13.3498C545.784 4.58086 537.177 -1.59957 528.868 1.20271L9.68649 176.299Z" fill="#ECECEC"/>
<path d="M1745.55 2184.63C1740.34 2182.87 1736.83 2177.99 1736.83 2172.48L1736.83 1455.93C1736.83 1450.42 1740.34 1445.54 1745.55 1443.78L2264.73 1268.68C2273.04 1265.88 2281.65 1272.06 2281.65 1280.83L2281.65 1621.46C2281.65 1626.86 2278.26 1631.69 2273.18 1633.52L1795.46 1805.87C1787.66 1808.69 1787.66 1819.72 1795.46 1822.54L2273.18 1994.89C2278.26 1996.72 2281.65 2001.55 2281.65 2006.95L2281.65 2347.58C2281.65 2356.35 2273.04 2362.53 2264.73 2359.73L1745.55 2184.63Z" fill="#ECECEC"/>
</svg>
