<svg width="171" height="222" viewBox="0 0 171 222" fill="none" xmlns="http://www.w3.org/2000/svg">
<path d="M2 83.0541V31.6981C2 30.4091 2.82343 29.2642 4.04547 28.854L83.0838 2.32722C85.0276 1.67487 87.0384 3.12104 87.0384 5.1713V216.727C87.0384 218.806 89.1016 220.255 91.057 219.549L167.41 191.986C168.599 191.556 169.391 190.428 169.391 189.164V138.946M2 83.0541L169.391 138.946M2 83.0541L86.0683 54.8391C86.6972 54.628 87.3784 54.6313 88.0052 54.8486L167.374 82.3548C168.581 82.7734 169.391 83.9112 169.391 85.1894V138.946M2 83.0541V136.759C2 138.062 2.84105 139.216 4.08144 139.615L86.1048 165.997C86.7114 166.192 87.3643 166.189 87.969 165.988L169.391 138.946" stroke="url(#paint0_linear_127_125)" stroke-width="3"/>
<defs>
<linearGradient id="paint0_linear_127_125" x1="2" y1="221" x2="214.032" y2="59.671" gradientUnits="userSpaceOnUse">
<stop stop-color="#F9A400"/>
<stop offset="1" stop-color="#F9D100"/>
</linearGradient>
</defs>
</svg>
