<svg width="240" height="40" viewBox="0 0 240 40" fill="none" xmlns="http://www.w3.org/2000/svg">
<path d="M220.903 17.3312H227.042V29.8089H233.228V17.3312H239.355V12.6536H220.903V17.3312Z" fill="#F6F6F6"/>
<path d="M201.227 25.3669C201.274 27.1186 202.154 28.4147 203.866 29.2552C205.578 30.0956 207.872 30.5159 210.747 30.5159C213.638 30.5159 215.892 30.021 217.51 29.0313C219.128 28.0337 219.937 26.5727 219.937 24.6482C219.937 22.8258 219.289 21.5729 217.993 20.8896C216.697 20.1983 214.824 19.6602 212.373 19.2753C209.914 18.914 208.473 18.643 208.049 18.4624C207.625 18.2738 207.413 18.0264 207.413 17.7201C207.413 17.3823 207.64 17.1309 208.096 16.966C208.552 16.801 209.298 16.7185 210.335 16.7185C211.568 16.7185 212.416 16.8521 212.88 17.1191C213.351 17.3862 213.606 17.7436 213.646 18.1914L213.681 18.4977H219.348L219.325 17.9086C219.262 16.1883 218.441 14.8844 216.862 13.9968C215.291 13.1013 213.088 12.6536 210.252 12.6536C207.424 12.6536 205.249 13.1327 203.725 14.091C202.201 15.0493 201.439 16.4161 201.439 18.1914C201.439 19.8252 202.071 21.0584 203.336 21.8911C204.6 22.7237 206.517 23.3246 209.086 23.6938C211.466 24.0316 212.88 24.3143 213.327 24.5421C213.775 24.7699 213.999 25.0606 213.999 25.4141C213.999 25.8068 213.732 26.0974 213.198 26.286C212.672 26.4745 211.827 26.5687 210.665 26.5687C209.423 26.5687 208.52 26.4509 207.955 26.2153C207.389 25.9718 207.075 25.5476 207.012 24.9427L206.965 24.5539H201.191L201.227 25.3669Z" fill="#F6F6F6"/>
<path d="M183.67 29.8089H199.765V25.3669H189.502V23.1872H198.528V19.1104H189.502V17.2252H199.576V12.6536H183.67V29.8089Z" fill="#F6F6F6"/>
<path d="M166.331 29.8623L162.206 12.6536L168.401 12.6536L172.2 27.0839L172.323 27.8025H172.451L172.574 27.0838L176.373 12.6536L182.568 12.6536L178.443 29.8623H166.331Z" fill="#F6F6F6"/>
<path d="M142.932 29.8089H148.01L147.986 21.0074C147.986 20.866 147.975 20.6971 147.951 20.5007C147.935 20.2965 147.92 20.108 147.904 19.9352H148.01C148.073 20.1158 148.179 20.3908 148.328 20.76C148.477 21.1213 148.658 21.459 148.87 21.7732L154.75 29.8089H160.688V12.6536H155.61V21.1841C155.61 21.4119 155.618 21.6279 155.633 21.8322C155.657 22.0285 155.676 22.2406 155.692 22.4684H155.586C155.523 22.2878 155.417 22.0482 155.268 21.7497C155.119 21.4433 154.969 21.1763 154.82 20.9485L148.894 12.6536H142.932V29.8089Z" fill="#F6F6F6"/>
<path d="M133.733 29.8089H139.966V12.6536H133.733V29.8089Z" fill="#F6F6F6"/>
<path d="M109.641 29.8089H124.487V25.1195H115.768V12.6536H109.641V29.8089Z" fill="#F6F6F6"/>
<path d="M88.6496 25.3669C88.6967 27.1186 89.5765 28.4147 91.2889 29.2552C93.0013 30.0956 95.295 30.5159 98.1699 30.5159C101.061 30.5159 103.315 30.021 104.933 29.0313C106.551 28.0337 107.36 26.5727 107.36 24.6482C107.36 22.8258 106.712 21.5729 105.416 20.8896C104.12 20.1983 102.247 19.6602 99.7959 19.2753C97.3373 18.914 95.8959 18.643 95.4717 18.4624C95.0475 18.2738 94.8354 18.0264 94.8354 17.7201C94.8354 17.3823 95.0632 17.1309 95.5188 16.966C95.9744 16.801 96.7206 16.7185 97.7575 16.7185C98.9907 16.7185 99.8391 16.8521 100.303 17.1191C100.774 17.3862 101.029 17.7436 101.068 18.1914L101.104 18.4977H106.771L106.748 17.9086C106.685 16.1883 105.864 14.8844 104.285 13.9968C102.714 13.1013 100.511 12.6536 97.675 12.6536C94.8472 12.6536 92.6714 13.1327 91.1475 14.091C89.6236 15.0493 88.8617 16.4161 88.8617 18.1914C88.8617 19.8252 89.494 21.0584 90.7587 21.8911C92.0233 22.7237 93.94 23.3246 96.5086 23.6938C98.8886 24.0316 100.303 24.3143 100.75 24.5421C101.198 24.7699 101.422 25.0606 101.422 25.4141C101.422 25.8068 101.155 26.0974 100.621 26.286C100.094 26.4745 99.25 26.5687 98.0874 26.5687C96.8463 26.5687 95.943 26.4509 95.3774 26.2153C94.8119 25.9718 94.4977 25.5476 94.4348 24.9427L94.3877 24.5539H88.6143L88.6496 25.3669Z" fill="#F6F6F6"/>
<path d="M29.3492 34.9516C29.4849 34.9059 29.5762 34.7787 29.5762 34.6356L29.5762 15.9937C29.5762 15.8506 29.4849 15.7234 29.3492 15.6777L15.8423 11.1224C15.6261 11.0495 15.4022 11.2103 15.4022 11.4384L15.4022 20.3002C15.4022 20.4408 15.4903 20.5662 15.6225 20.6139L28.0508 25.0978C28.2538 25.1711 28.2538 25.4582 28.0508 25.5314L15.6225 30.0154C15.4903 30.0631 15.4022 30.1885 15.4022 30.3291L15.4022 39.1909C15.4022 39.419 15.6261 39.5798 15.8423 39.5069L29.3492 34.9516Z" fill="url(#paint0_linear_126_120)"/>
<path d="M1.13708 6.33207C1.00147 6.37781 0.910156 6.50497 0.910156 6.64809V25.29C0.910156 25.4331 1.00147 25.5603 1.13708 25.606L14.6441 30.1613C14.8602 30.2342 15.0841 30.0734 15.0841 29.8453V20.9835C15.0841 20.8429 14.996 20.7175 14.8638 20.6698L2.43557 16.1858C2.23256 16.1126 2.23256 15.8255 2.43557 15.7523L14.8638 11.2683C14.996 11.2206 15.0841 11.0952 15.0841 10.9546V2.0928C15.0841 1.86467 14.8602 1.70388 14.6441 1.77678L1.13708 6.33207Z" fill="#F6F6F6"/>
<path d="M72.1552 12.6536L68.0264 29.8767L74.2267 29.8767L78.0262 15.4437L78.1483 14.7301H78.2764L78.3989 15.4436L82.1984 29.8767L88.3987 29.8767L84.2699 12.6536H72.1552Z" fill="#F6F6F6"/>
<path d="M46.125 21.785C46.125 24.7385 47.0833 26.934 48.9999 28.3715C50.9166 29.8011 53.5716 30.5159 56.9649 30.5159C60.2326 30.5159 62.7148 29.9582 64.4115 28.8428C66.116 27.7274 67.0272 26.0307 67.145 23.7527L67.1804 23.1165H61.0299L60.971 23.6938C60.9003 24.5971 60.5586 25.2727 59.9459 25.7204C59.3332 26.1603 58.3278 26.3802 56.9296 26.3802C55.5785 26.3802 54.5259 26.0582 53.7719 25.4141C53.0178 24.7699 52.6407 23.682 52.6407 22.1503V20.9485C52.6407 19.5424 53.0217 18.5095 53.7836 17.8497C54.5534 17.1898 55.6099 16.8599 56.9532 16.8599C58.1942 16.8599 59.1486 17.0563 59.8163 17.4491C60.4918 17.834 60.8689 18.537 60.9474 19.5581L60.9946 20.1237H67.1686L67.1333 19.5346C66.9762 17.1388 66.0336 15.395 64.3055 14.3031C62.5773 13.2034 60.1187 12.6536 56.9296 12.6536C53.6855 12.6536 51.0737 13.3605 49.0942 14.7744C47.1147 16.1883 46.125 18.372 46.125 21.3255V21.785Z" fill="#F6F6F6"/>
<defs>
<linearGradient id="paint0_linear_126_120" x1="22.4892" y1="39.5247" x2="15.4022" y2="39.5247" gradientUnits="userSpaceOnUse">
<stop offset="0.1875" stop-color="white"/>
<stop offset="1" stop-color="white" stop-opacity="0.58"/>
</linearGradient>
</defs>
</svg>
