<svg width="1281" height="40" viewBox="0 0 1281 40" fill="none" xmlns="http://www.w3.org/2000/svg">
<path d="M220.903 17.3315H227.042V29.8092H233.228V17.3315H239.355V12.6538H220.903V17.3315Z" fill="#F6F6F6"/>
<path d="M201.227 25.3672C201.274 27.1188 202.154 28.4149 203.866 29.2554C205.578 30.0959 207.872 30.5161 210.747 30.5161C213.638 30.5161 215.892 30.0213 217.51 29.0315C219.128 28.0339 219.937 26.5729 219.937 24.6484C219.937 22.8261 219.289 21.5732 217.993 20.8898C216.697 20.1986 214.824 19.6605 212.373 19.2756C209.914 18.9143 208.473 18.6433 208.049 18.4626C207.625 18.2741 207.413 18.0266 207.413 17.7203C207.413 17.3825 207.64 17.1312 208.096 16.9662C208.552 16.8013 209.298 16.7188 210.335 16.7188C211.568 16.7188 212.416 16.8523 212.88 17.1194C213.351 17.3865 213.606 17.7439 213.646 18.1916L213.681 18.4979H219.348L219.325 17.9088C219.262 16.1886 218.441 14.8846 216.862 13.997C215.291 13.1015 213.088 12.6538 210.252 12.6538C207.424 12.6538 205.249 13.133 203.725 14.0913C202.201 15.0496 201.439 16.4164 201.439 18.1916C201.439 19.8254 202.071 21.0587 203.336 21.8913C204.6 22.7239 206.517 23.3249 209.086 23.694C211.466 24.0318 212.88 24.3146 213.327 24.5424C213.775 24.7702 213.999 25.0608 213.999 25.4143C213.999 25.807 213.732 26.0977 213.198 26.2862C212.672 26.4747 211.827 26.569 210.665 26.569C209.423 26.569 208.52 26.4512 207.955 26.2155C207.389 25.972 207.075 25.5478 207.012 24.943L206.965 24.5542H201.191L201.227 25.3672Z" fill="#F6F6F6"/>
<path d="M183.67 29.8092H199.765V25.3672H189.502V23.1874H198.528V19.1106H189.502V17.2254H199.576V12.6538H183.67V29.8092Z" fill="#F6F6F6"/>
<path d="M166.331 29.8625L162.206 12.6538L168.401 12.6538L172.2 27.0842L172.323 27.8027H172.451L172.574 27.0841L176.373 12.6538L182.568 12.6538L178.443 29.8625H166.331Z" fill="#F6F6F6"/>
<path d="M142.932 29.8092H148.01L147.986 21.0076C147.986 20.8662 147.975 20.6974 147.951 20.501C147.935 20.2967 147.92 20.1082 147.904 19.9354H148.01C148.073 20.1161 148.179 20.391 148.328 20.7602C148.477 21.1215 148.658 21.4593 148.87 21.7735L154.75 29.8092H160.688V12.6538H155.61V21.1844C155.61 21.4122 155.618 21.6282 155.633 21.8324C155.657 22.0288 155.676 22.2409 155.692 22.4687H155.586C155.523 22.288 155.417 22.0484 155.268 21.7499C155.119 21.4436 154.969 21.1765 154.82 20.9487L148.894 12.6538H142.932V29.8092Z" fill="#F6F6F6"/>
<path d="M133.733 29.8092H139.966V12.6538H133.733V29.8092Z" fill="#F6F6F6"/>
<path d="M109.641 29.8092H124.487V25.1197H115.768V12.6538H109.641V29.8092Z" fill="#F6F6F6"/>
<path d="M88.6496 25.3672C88.6967 27.1188 89.5765 28.4149 91.2889 29.2554C93.0013 30.0959 95.295 30.5161 98.1699 30.5161C101.061 30.5161 103.315 30.0213 104.933 29.0315C106.551 28.0339 107.36 26.5729 107.36 24.6484C107.36 22.8261 106.712 21.5732 105.416 20.8898C104.12 20.1986 102.247 19.6605 99.7959 19.2756C97.3373 18.9143 95.8959 18.6433 95.4717 18.4626C95.0475 18.2741 94.8354 18.0266 94.8354 17.7203C94.8354 17.3825 95.0632 17.1312 95.5188 16.9662C95.9744 16.8013 96.7206 16.7188 97.7575 16.7188C98.9907 16.7188 99.8391 16.8523 100.303 17.1194C100.774 17.3865 101.029 17.7439 101.068 18.1916L101.104 18.4979H106.771L106.748 17.9088C106.685 16.1886 105.864 14.8846 104.285 13.997C102.714 13.1015 100.511 12.6538 97.675 12.6538C94.8472 12.6538 92.6714 13.133 91.1475 14.0913C89.6236 15.0496 88.8617 16.4164 88.8617 18.1916C88.8617 19.8254 89.494 21.0587 90.7587 21.8913C92.0233 22.7239 93.94 23.3249 96.5086 23.694C98.8886 24.0318 100.303 24.3146 100.75 24.5424C101.198 24.7702 101.422 25.0608 101.422 25.4143C101.422 25.807 101.155 26.0977 100.621 26.2862C100.094 26.4747 99.25 26.569 98.0874 26.569C96.8463 26.569 95.943 26.4512 95.3774 26.2155C94.8119 25.972 94.4977 25.5478 94.4348 24.943L94.3877 24.5542H88.6143L88.6496 25.3672Z" fill="#F6F6F6"/>
<path d="M29.3492 34.9519C29.4849 34.9061 29.5762 34.779 29.5762 34.6358L29.5762 15.9939C29.5762 15.8508 29.4849 15.7236 29.3492 15.6779L15.8423 11.1226C15.6261 11.0497 15.4022 11.2105 15.4022 11.4386L15.4022 20.3005C15.4022 20.441 15.4903 20.5665 15.6225 20.6142L28.0508 25.0981C28.2538 25.1713 28.2538 25.4584 28.0508 25.5317L15.6225 30.0156C15.4903 30.0633 15.4022 30.1888 15.4022 30.3293L15.4022 39.1911C15.4022 39.4193 15.6261 39.5801 15.8423 39.5072L29.3492 34.9519Z" fill="url(#paint0_linear_58_180)"/>
<path d="M1.13708 6.33183C1.00147 6.37756 0.910156 6.50473 0.910156 6.64784V25.2898C0.910156 25.4329 1.00147 25.56 1.13708 25.6058L14.6441 30.1611C14.8602 30.234 15.0841 30.0732 15.0841 29.8451V20.9832C15.0841 20.8427 14.996 20.7172 14.8638 20.6695L2.43557 16.1856C2.23256 16.1124 2.23256 15.8253 2.43557 15.752L14.8638 11.2681C14.996 11.2204 15.0841 11.0949 15.0841 10.9544V2.09255C15.0841 1.86442 14.8602 1.70363 14.6441 1.77654L1.13708 6.33183Z" fill="#F6F6F6"/>
<path d="M72.1552 12.6538L68.0264 29.877L74.2267 29.877L78.0262 15.4439L78.1483 14.7303H78.2764L78.3989 15.4438L82.1984 29.877L88.3987 29.877L84.2699 12.6538H72.1552Z" fill="#F6F6F6"/>
<path d="M46.125 21.7853C46.125 24.7388 47.0833 26.9342 48.9999 28.3717C50.9166 29.8013 53.5716 30.5161 56.9649 30.5161C60.2326 30.5161 62.7148 29.9584 64.4115 28.843C66.116 27.7276 67.0272 26.0309 67.145 23.753L67.1804 23.1167H61.0299L60.971 23.694C60.9003 24.5974 60.5586 25.2729 59.9459 25.7206C59.3332 26.1605 58.3278 26.3805 56.9296 26.3805C55.5785 26.3805 54.5259 26.0584 53.7719 25.4143C53.0178 24.7702 52.6407 23.6823 52.6407 22.1505V20.9487C52.6407 19.5427 53.0217 18.5097 53.7836 17.8499C54.5534 17.1901 55.6099 16.8602 56.9531 16.8602C58.1942 16.8602 59.1486 17.0565 59.8163 17.4493C60.4918 17.8342 60.8689 18.5372 60.9474 19.5584L60.9946 20.1239H67.1686L67.1333 19.5348C66.9762 17.139 66.0336 15.3952 64.3055 14.3034C62.5773 13.2037 60.1187 12.6538 56.9296 12.6538C53.6855 12.6538 51.0737 13.3608 49.0942 14.7747C47.1147 16.1886 46.125 18.3723 46.125 21.3258V21.7853Z" fill="#F6F6F6"/>
<defs>
<linearGradient id="paint0_linear_58_180" x1="22.4892" y1="39.5249" x2="15.4022" y2="39.5249" gradientUnits="userSpaceOnUse">
<stop offset="0.1875" stop-color="white"/>
<stop offset="1" stop-color="white" stop-opacity="0.58"/>
</linearGradient>
</defs>
</svg>
