<svg width="546" height="1093" viewBox="0 0 546 1093" fill="none" xmlns="http://www.w3.org/2000/svg">
<path d="M536.86 916.964C542.073 915.206 545.583 910.318 545.583 904.817L545.583 188.258C545.583 182.757 542.073 177.869 536.86 176.111L17.6792 1.0146C9.37003 -1.78764 0.763218 4.39277 0.763217 13.1617L0.763187 353.793C0.763187 359.195 4.15015 364.018 9.232 365.851L486.949 538.204C494.752 541.019 494.752 552.055 486.949 554.871L9.23197 727.223C4.15012 729.057 0.763154 733.879 0.763153 739.282L0.763124 1079.91C0.763123 1088.68 9.36993 1094.86 17.6791 1092.06L536.86 916.964Z" fill="#ECECEC"/>
</svg>
