<svg width="1094" height="546" viewBox="0 0 1094 546" fill="none" xmlns="http://www.w3.org/2000/svg">
<path d="M917.426 8.91844C915.668 3.70573 910.781 0.195816 905.279 0.195815L188.721 0.195784C183.22 0.195784 178.332 3.7057 176.574 8.91841L1.47739 528.099C-1.32485 536.409 4.85557 545.015 13.6245 545.015L354.256 545.015C359.658 545.015 364.481 541.628 366.314 536.547L538.667 58.8295C541.482 51.0262 552.518 51.0262 555.333 58.8295L727.686 536.547C729.52 541.628 734.342 545.015 739.745 545.015L1080.38 545.015C1089.14 545.015 1095.33 536.409 1092.52 528.1L917.426 8.91844Z" fill="#ECECEC"/>
</svg>
